<?xml version="1.0" standalone="no"?>
<!DOCTYPE svg PUBLIC "-//W3C//DTD SVG 20010904//EN"
 "http://www.w3.org/TR/2001/REC-SVG-20010904/DTD/svg10.dtd">
<svg version="1.0" xmlns="http://www.w3.org/2000/svg"
 width="500.000000pt" height="500.000000pt" viewBox="0 0 500.000000 500.000000"
 preserveAspectRatio="xMidYMid meet">
<metadata>
Created by potrace 1.16, written by Peter Selinger 2001-2019
</metadata>
<g transform="translate(0.000000,500.000000) scale(0.100000,-0.100000)"
fill="#000000" stroke="none">
<path d="M2460 3672 l0 -60 -62 -7 c-156 -16 -279 -50 -405 -112 -330 -164
-584 -512 -637 -873 l-12 -85 -54 -5 -55 -5 -3 -47 -3 -48 43 0 c24 0 48 -4
55 -8 6 -4 16 -52 22 -107 18 -161 54 -281 126 -425 153 -303 438 -537 750
-615 109 -27 258 -43 312 -34 26 4 84 13 128 19 364 54 720 349 882 733 45
107 81 246 89 345 l7 82 38 0 c60 0 69 7 69 56 l0 44 -54 0 -53 0 -6 81 c-28
360 -281 712 -642 892 -112 55 -244 93 -397 112 l-47 6 -3 57 -3 57 -42 3 -43
3 0 -59z m47 -409 c7 -16 72 -140 144 -278 146 -279 492 -968 503 -1003 l7
-22 -690 0 c-380 0 -691 3 -691 8 0 19 166 292 198 325 20 20 53 42 73 47 22
6 153 9 314 8 l277 -3 -49 -57 -48 -57 -225 0 c-158 -1 -232 -5 -250 -14 -13
-7 -39 -38 -57 -70 l-32 -57 495 0 c272 0 494 2 494 5 0 3 -41 86 -90 185
l-90 180 -380 0 c-209 0 -380 3 -380 6 0 5 72 134 235 424 45 80 113 202 151
272 38 71 71 128 74 128 3 0 11 -12 17 -27z"/>
<path d="M2465 3023 c-8 -16 -67 -118 -129 -228 l-114 -200 246 -3 c135 -1
247 -1 249 1 4 5 -226 457 -232 457 -2 0 -11 -12 -20 -27z"/>
</g>
</svg>
