<?xml version="1.0" encoding="UTF-8"?>
<svg version="1.1" xmlns="http://www.w3.org/2000/svg" width="500" height="500">
<path d="M0 0 C3.125 0.3125 3.125 0.3125 4.9375 1.75 C6.67036807 5.48934688 6.8721602 9.23218874 7.125 13.3125 C8.02025391 13.24289063 8.02025391 13.24289063 8.93359375 13.171875 C27.248939 12.40986955 45.62566729 20.10334741 61.125 29.3125 C61.125 29.9725 61.125 30.6325 61.125 31.3125 C61.929375 31.43625 61.929375 31.43625 62.75 31.5625 C65.99840691 32.58831271 68.41251859 34.27813894 71.125 36.3125 C71.125 36.9725 71.125 37.6325 71.125 38.3125 C71.681875 38.374375 72.23875 38.43625 72.8125 38.5 C76.13443148 39.66716511 77.72481091 41.74485585 80.125 44.3125 C82.00338622 46.13218665 83.88444113 47.9489775 85.76953125 49.76171875 C87.125 51.3125 87.125 51.3125 87.125 53.3125 C87.785 53.3125 88.445 53.3125 89.125 53.3125 C92.04678668 56.78506026 94.55220192 60.57704 97.125 64.3125 C98.05119141 65.6428125 98.05119141 65.6428125 98.99609375 67 C108.94666767 81.89261843 114.37411315 98.38541908 114.94921875 116.20703125 C114.77175148 119.18125674 114.77175148 119.18125674 116.125 120.3125 C117.63665654 120.70398761 119.15969632 121.05222457 120.6875 121.375 C121.51378906 121.55160156 122.34007812 121.72820312 123.19140625 121.91015625 C123.82949219 122.04292969 124.46757812 122.17570312 125.125 122.3125 C126.45097623 128.70129457 126.45097623 128.70129457 125.125 131.1875 C122.24231861 132.80900828 119.3809494 132.95072784 116.125 133.3125 C114.33091923 135.10658077 114.90824598 137.94852339 114.8125 140.375 C113.5840091 158.74652297 107.18122443 178.23218081 96.375 193.1875 C94.01999568 196.13136221 94.01999568 196.13136221 93.125 199.3125 C92.465 199.3125 91.805 199.3125 91.125 199.3125 C90.898125 200.01375 90.67125 200.715 90.4375 201.4375 C88.78658712 205.05378535 86.8341165 207.40019976 84.125 210.3125 C83.465 210.3125 82.805 210.3125 82.125 210.3125 C81.7846875 211.116875 81.7846875 211.116875 81.4375 211.9375 C79.37582754 215.6681454 77.10207485 219.7083938 72.875 221 C72.2975 221.103125 71.72 221.20625 71.125 221.3125 C70.795 222.3025 70.465 223.2925 70.125 224.3125 C67.9375 226.14453125 67.9375 226.14453125 65.125 228.125 C64.12984375 228.82625 63.1346875 229.5275 62.109375 230.25 C61.12453125 230.930625 60.1396875 231.61125 59.125 232.3125 C58.30515625 232.89 57.4853125 233.4675 56.640625 234.0625 C52.28193663 237.06849198 48.07606882 239.36743725 43.125 241.3125 C42.19880859 241.77076172 42.19880859 241.77076172 41.25390625 242.23828125 C16.37562035 254.41876527 -12.20686784 252.61873255 -37.875 244.3125 C-40.96364113 243.12866925 -43.92172649 241.79858219 -46.875 240.3125 C-47.82375 239.879375 -48.7725 239.44625 -49.75 239 C-58.49530057 234.27753769 -67.2650341 228.71546937 -74.875 222.3125 C-74.875 221.6525 -74.875 220.9925 -74.875 220.3125 C-75.473125 220.044375 -76.07125 219.77625 -76.6875 219.5 C-78.87347854 218.31332594 -80.28832594 217.21650887 -81.875 215.3125 C-81.875 214.6525 -81.875 213.9925 -81.875 213.3125 C-82.73738281 212.98958984 -82.73738281 212.98958984 -83.6171875 212.66015625 C-86.6296891 210.86203678 -88.02323473 208.63246951 -90 205.75 C-92.39935062 201.92544382 -92.39935062 201.92544382 -95.875 199.3125 C-98.07425422 195.75886634 -99.94583033 192.01841112 -101.875 188.3125 C-102.32488281 187.45398438 -102.77476562 186.59546875 -103.23828125 185.7109375 C-110.00808786 172.50667073 -113.91868608 159.82227342 -115.14111328 145.03735352 C-115.53549007 140.51320843 -116.21547827 136.58869501 -117.875 132.3125 C-120.845 131.9825 -123.815 131.6525 -126.875 131.3125 C-126.97265625 124.37890625 -126.97265625 124.37890625 -126.875 122.3125 C-125.29227399 120.72977399 -123.49465997 120.96514253 -121.3125 120.75 C-120.48621094 120.66621094 -119.65992188 120.58242187 -118.80859375 120.49609375 C-118.17050781 120.43550781 -117.53242188 120.37492187 -116.875 120.3125 C-115.77300989 115.01356884 -114.78413437 109.73091778 -114 104.375 C-113.00683322 98.34670862 -111.15992839 92.96135075 -108.875 87.3125 C-108.318125 85.84296875 -108.318125 85.84296875 -107.75 84.34375 C-104.89677205 77.06051025 -101.3330389 70.72772671 -96.875 64.3125 C-96.45911621 63.70937988 -96.04323242 63.10625977 -95.61474609 62.48486328 C-90.33031072 54.87001289 -85.23170878 48.05103251 -77.875 42.3125 C-76.41189519 41.0053211 -74.95352257 39.69282567 -73.5 38.375 C-70.12115385 35.3125 -70.12115385 35.3125 -67.875 35.3125 C-67.875 34.6525 -67.875 33.9925 -67.875 33.3125 C-62.80262683 29.25188534 -57.43300925 26.42235572 -51.5625 23.6875 C-50.77166016 23.3059375 -49.98082031 22.924375 -49.16601562 22.53125 C-36.59432732 16.60795251 -22.73791117 13.37270769 -8.88671875 12.5234375 C-6.87896592 12.5263034 -6.87896592 12.5263034 -5.875 11.3125 C-5.50628912 9.65330104 -5.17904678 7.98475729 -4.875 6.3125 C-3.80241935 0.41330645 -3.80241935 0.41330645 0 0 Z " fill="#2B282F" transform="translate(249.875,125.6875)"/>
<path d="M0 0 C0.66 0 1.32 0 2 0 C2.48033691 0.96574951 2.96067383 1.93149902 3.45556641 2.92651367 C8.01185566 12.07209411 12.63211126 21.18230854 17.31738281 30.26245117 C18.36918562 32.3012296 19.41907116 34.34098675 20.46875 36.38085938 C23.38824109 42.04764659 26.3114942 47.71173024 29.29858398 53.34326172 C35.9152169 65.81844685 42.28235912 78.41095576 48.58813477 91.04589844 C50.32463029 94.52429835 52.0654453 98.00051322 53.80664062 101.4765625 C54.9299443 103.72382999 56.0530001 105.9712214 57.17578125 108.21875 C57.68732254 109.23980835 58.19886383 110.2608667 58.72590637 111.31286621 C68 129.92097217 68 129.92097217 68 133 C22.46 133 -23.08 133 -70 133 C-68.64912791 128.94738373 -67.65601987 126.08268648 -65.609375 122.5390625 C-65.14660156 121.73726563 -64.68382812 120.93546875 -64.20703125 120.109375 C-63.72621094 119.28953125 -63.24539062 118.4696875 -62.75 117.625 C-62.28464844 116.81289063 -61.81929687 116.00078125 -61.33984375 115.1640625 C-50.7187034 96.90623447 -50.7187034 96.90623447 -42 94 C-40.11343185 93.91147181 -38.22384476 93.88237778 -36.33520508 93.88647461 C-35.17422806 93.88655014 -34.01325104 93.88662567 -32.8170929 93.88670349 C-31.56389755 93.89186478 -30.31070221 93.89702606 -29.01953125 93.90234375 C-27.73640549 93.9037587 -26.45327972 93.90517365 -25.13127136 93.90663147 C-21.72329759 93.91044595 -18.31536657 93.92026709 -14.90740967 93.93133545 C-11.42851337 93.94157257 -7.94961015 93.94613402 -4.47070312 93.95117188 C2.35288212 93.96189033 9.17643901 93.97895391 16 94 C14.54170602 96.00272373 13.06738658 97.9883022 11.5604248 99.95481873 C10.43187702 101.43395748 9.34421983 102.94459575 8.28320312 104.47290039 C4.37138238 107.08928606 0.05443608 106.50022889 -4.53125 106.43359375 C-6.64192783 106.4431977 -8.7526049 106.45296842 -10.86328125 106.46289062 C-14.18807339 106.45427972 -17.51267336 106.43741563 -20.83740234 106.4152832 C-24.04823878 106.40079001 -27.25795375 106.41599608 -30.46875 106.43359375 C-31.46362427 106.41711288 -32.45849854 106.40063202 -33.48352051 106.38365173 C-38.90930458 106.33669325 -38.90930458 106.33669325 -43.40820312 109.03540039 C-45.34902152 112.65002581 -47.16520884 116.33041768 -49 120 C-16.66 120 15.68 120 49 120 C41.30163452 100.20145531 41.30163452 100.20145531 30 83 C27.70016978 82.87579266 25.39652614 82.82195547 23.09350586 82.79467773 C22.01064049 82.77982834 22.01064049 82.77982834 20.90589905 82.76467896 C18.50891449 82.73297701 16.11191008 82.70827241 13.71484375 82.68359375 C12.05716931 82.66303171 10.3995002 82.64203545 8.74183655 82.62062073 C4.37051705 82.5653225 -0.00085037 82.51594756 -4.37225342 82.46777344 C-8.82959274 82.41761484 -13.28686213 82.3618994 -17.74414062 82.30664062 C-26.4960347 82.19896432 -35.24798712 82.09754055 -44 82 C-43.07234957 77.69789581 -40.99884707 74.21261647 -38.8125 70.4375 C-38.04731224 69.10336024 -37.28300841 67.76871316 -36.51953125 66.43359375 C-36.11686035 65.72952393 -35.71418945 65.0254541 -35.29931641 64.30004883 C-31.77980495 58.06981256 -28.40954323 51.75565976 -25 45.46484375 C-23.5 42.70117188 -23.5 42.70117188 -22 39.9375 C-21.505 39.02162109 -21.01 38.10574219 -20.5 37.16210938 C-17.5676941 31.7671247 -14.50411193 26.48084559 -11.32128906 21.23022461 C-9.69670062 18.48805621 -8.2603845 15.68222504 -6.875 12.8125 C-4.72994666 8.43772015 -2.47826944 4.19399443 0 0 Z " fill="#F4F4F4" transform="translate(248,171)"/>
<path d="M0 0 C-1.32 0.66 -2.64 1.32 -4 2 C-4 3.65 -4 5.3 -4 7 C-4.66 7 -5.32 7 -6 7 C-6 7.66 -6 8.32 -6 9 C-5.34 9 -4.68 9 -4 9 C-4 12.3 -4 15.6 -4 19 C-4.93199219 19.23074219 -5.86398438 19.46148437 -6.82421875 19.69921875 C-34.51482415 26.78286199 -56.66831779 39.1868005 -72 64 C-79.27500185 76.70433727 -83.99309792 89.67165599 -87 104 C-88.98 104 -90.96 104 -93 104 C-93.33 105.65 -93.66 107.3 -94 109 C-82.12 109.33 -70.24 109.66 -58 110 C-58 111.65 -58 113.3 -58 115 C-74.83 115 -91.66 115 -109 115 C-109 112.69 -109 110.38 -109 108 C-110.32 107.34 -111.64 106.68 -113 106 C-111.515 105.505 -111.515 105.505 -110 105 C-108.89800989 99.70106884 -107.90913437 94.41841778 -107.125 89.0625 C-106.13183322 83.03420862 -104.28492839 77.64885075 -102 72 C-101.443125 70.53046875 -101.443125 70.53046875 -100.875 69.03125 C-98.02177205 61.74801025 -94.4580389 55.41522671 -90 49 C-89.58411621 48.39687988 -89.16823242 47.79375977 -88.73974609 47.17236328 C-83.45531072 39.55751289 -78.35670878 32.73853251 -71 27 C-69.53689519 25.6928211 -68.07852257 24.38032567 -66.625 23.0625 C-63.24615385 20 -63.24615385 20 -61 20 C-61 19.34 -61 18.68 -61 18 C-55.92762683 13.93938534 -50.55800925 11.10985572 -44.6875 8.375 C-43.89666016 7.9934375 -43.10582031 7.611875 -42.29101562 7.21875 C-31.77349539 2.26329774 -10.57016809 -7.04677873 0 0 Z " fill="#333037" transform="translate(243,141)"/>
<path d="M0 0 C4.75481646 0.57634139 7.97048212 2.55068521 12 5 C12 5.66 12 6.32 12 7 C12.53625 7.0825 13.0725 7.165 13.625 7.25 C16.87340691 8.27581271 19.28751859 9.96563894 22 12 C22 12.66 22 13.32 22 14 C22.556875 14.061875 23.11375 14.12375 23.6875 14.1875 C27.00943148 15.35466511 28.59981091 17.43235585 31 20 C32.87838622 21.81968665 34.75944113 23.6364775 36.64453125 25.44921875 C38 27 38 27 38 29 C38.66 29 39.32 29 40 29 C42.92178668 32.47256026 45.42720192 36.26454 48 40 C48.61746094 40.886875 49.23492187 41.77375 49.87109375 42.6875 C59.82166767 57.58011843 65.24911315 74.07291908 65.82421875 91.89453125 C65.64675148 94.86875674 65.64675148 94.86875674 67 96 C69.32817964 96.36760731 71.6618385 96.70241581 74 97 C74 97.33 74 97.66 74 98 C71.03 98 68.06 98 65 98 C64.67 98.66 64.34 99.32 64 100 C64.66 100 65.32 100 66 100 C66 101.98 66 103.96 66 106 C48.84 106 31.68 106 14 106 C14 101 14 101 15 100 C16.41327947 99.84379445 17.8335459 99.74943827 19.25390625 99.68359375 C20.10791016 99.64169922 20.96191406 99.59980469 21.84179688 99.55664062 C22.73962891 99.51732422 23.63746094 99.47800781 24.5625 99.4375 C25.91504883 99.37272461 25.91504883 99.37272461 27.29492188 99.30664062 C29.52978485 99.20021858 31.76476308 99.09820012 34 99 C34 98.67 34 98.34 34 98 C36.06168985 97.80379233 38.12440998 97.61839247 40.1875 97.4375 C41.91033203 97.28087891 41.91033203 97.28087891 43.66796875 97.12109375 C46.68631199 97.01140015 49.08923936 97.25997611 52 98 C52 97.34 52 96.68 52 96 C49.03 95.67 46.06 95.34 43 95 C42.85304688 94.030625 42.70609375 93.06125 42.5546875 92.0625 C40.23943968 77.84154237 35.99261335 65.11205553 28 53 C27.53722656 52.20335937 27.07445312 51.40671875 26.59765625 50.5859375 C14.14711842 30.43372224 -6.96226036 18.94966063 -29 12 C-32.6523692 11.14061901 -36.27641085 10.45755968 -40 10 C-40 7.03 -40 4.06 -40 1 C-34.3715633 0.73976845 -29.70499977 1.61791183 -24.3125 3.1875 C-23.52665527 3.41163574 -22.74081055 3.63577148 -21.93115234 3.86669922 C-6.37914884 8.42323592 -6.37914884 8.42323592 -0.9765625 12.54296875 C1.21662359 14.15968498 3.15519253 14.8861624 5.75 15.6875 C6.54921875 15.93886719 7.3484375 16.19023437 8.171875 16.44921875 C8.77515625 16.63097656 9.3784375 16.81273437 10 17 C9.505 14.525 9.505 14.525 9 12 C10.32 12.33 11.64 12.66 13 13 C12.34 12.01 11.68 11.02 11 10 C11 8.68 11 7.36 11 6 C10.01 6 9.02 6 8 6 C7.67 7.32 7.34 8.64 7 10 C6.01 9.01 5.02 8.02 4 7 C4.66 6.34 5.32 5.68 6 5 C5.01 4.360625 4.02 3.72125 3 3.0625 C2.01 2.381875 1.02 1.70125 0 1 C0 0.67 0 0.34 0 0 Z " fill="#38363C" transform="translate(299,150)"/>
<path d="M0 0 C2.64 0 5.28 0 8 0 C8.00257813 1.04414063 8.00515625 2.08828125 8.0078125 3.1640625 C8.50286935 28.57307484 17.672854 50.12666662 33 70 C33.53367188 70.70769531 34.06734375 71.41539062 34.6171875 72.14453125 C44.61966685 84.66175823 59.42797493 92.18918013 74 98 C74.79148437 98.36351562 75.58296875 98.72703125 76.3984375 99.1015625 C79.94864766 100.32761106 83.53548618 100.67835514 87.25 101.0625 C94.87463054 101.87463054 94.87463054 101.87463054 96 103 C96 104.65 96 106.3 96 108 C99.3 108 102.6 108 106 108 C106.33 106.02 106.66 104.04 107 102 C108.92199219 101.65388672 108.92199219 101.65388672 110.8828125 101.30078125 C127.52541056 98.20955183 141.0999248 93.81181779 155 84 C155.845625 83.4225 156.69125 82.845 157.5625 82.25 C166.99621603 75.43676065 173.62503724 65.59324107 180 56 C180.51304687 55.26910156 181.02609375 54.53820312 181.5546875 53.78515625 C191.73968811 38.34933926 195.20254751 18.09392202 196 0 C198.64 0 201.28 0 204 0 C205.95555985 24.17289265 194.82203597 49.48917776 179.80078125 67.89453125 C179.20652344 68.58933594 178.61226562 69.28414063 178 70 C177.31292969 70.80824219 176.62585938 71.61648438 175.91796875 72.44921875 C166.44831397 83.27878892 156.48217872 91.04363972 144 98 C143.22398437 98.433125 142.44796875 98.86625 141.6484375 99.3125 C132.53875719 104.11101473 123.17372866 106.65060492 113 108 C113 110.64 113 113.28 113 116 C106.04012347 118.62105989 100.33961147 119.52438084 93 118 C92.34 117.67 91.68 117.34 91 117 C91 114.36 91 111.72 91 109 C90.319375 108.92523438 89.63875 108.85046875 88.9375 108.7734375 C75.57302257 106.96070253 63.5533242 101.83219837 52 95 C50.60491974 94.20700701 49.20918787 93.41515808 47.8125 92.625 C46.884375 92.08875 45.95625 91.5525 45 91 C45 90.34 45 89.68 45 89 C44.43667969 88.7525 43.87335938 88.505 43.29296875 88.25 C24.87487074 78.20946957 13.41425435 56.77507708 6 38 C5.73566162 37.34435059 5.47132324 36.68870117 5.19897461 36.01318359 C0.62126768 24.3301841 -0.52472011 12.43781013 0 0 Z " fill="#6F25B0" transform="translate(147,258)"/>
<path d="M0 0 C0 2.97 0 5.94 0 9 C-0.93199219 9.23074219 -1.86398438 9.46148437 -2.82421875 9.69921875 C-30.51482415 16.78286199 -52.66831779 29.1868005 -68 54 C-75.07996093 66.36373726 -79.80340821 79.12388565 -83 93 C-85.64 93 -88.28 93 -91 93 C-92.33705718 73.94693516 -81.68358763 52.65713764 -69.65722656 38.40917969 C-56.2527126 23.08319957 -41.76884897 10.88128197 -22.625 3.5625 C-21.98353027 3.3154834 -21.34206055 3.0684668 -20.68115234 2.81396484 C-13.86780795 0.3470946 -7.18930131 -0.14977711 0 0 Z " fill="#801ECF" transform="translate(239,151)"/>
<path d="M0 0 C5.62796377 -0.26020969 10.29562517 0.61679331 15.6875 2.1875 C16.47769531 2.41453613 17.26789063 2.64157227 18.08203125 2.87548828 C28.92201191 6.06878063 37.99700438 10.12085646 47 17 C48.05445313 17.77730469 49.10890625 18.55460937 50.1953125 19.35546875 C68.87708167 33.24019955 84.34663052 52.072446 90 75 C90.29648437 76.06605469 90.59296875 77.13210937 90.8984375 78.23046875 C92.35952901 83.62578373 93.38115894 88.40966891 93 94 C89.7 94 86.4 94 83 94 C82.85304688 93.030625 82.70609375 92.06125 82.5546875 91.0625 C80.23943968 76.84154237 75.99261335 64.11205553 68 52 C67.53722656 51.20335937 67.07445312 50.40671875 66.59765625 49.5859375 C54.14711842 29.43372224 33.03773964 17.94966063 11 11 C7.3476308 10.14061901 3.72358915 9.45755968 0 9 C0 6.03 0 3.06 0 0 Z " fill="#8B1CE6" transform="translate(259,151)"/>
<path d="M0 0 C2.81409384 2.46837568 4.22002049 5.1066996 5.85546875 8.453125 C6.39212158 9.54109375 6.92877441 10.6290625 7.48168945 11.75 C8.04460693 12.905 8.60752441 14.06 9.1875 15.25 C13.53396364 24.07535621 17.95866066 32.82189975 22.70703125 41.4375 C24 44 24 44 24 46 C7.5 46 -9 46 -26 46 C-19.16582241 32.33164482 -19.16582241 32.33164482 -15.1875 25.75 C-11.27531844 19.19643949 -7.48197283 12.58767217 -3.7800293 5.91308594 C-1.10035002 1.10035002 -1.10035002 1.10035002 0 0 Z " fill="#29262D" transform="translate(248,195)"/>
<path d="M0 0 C2.64 0 5.28 0 8 0 C8.00257813 1.04414063 8.00515625 2.08828125 8.0078125 3.1640625 C8.50286935 28.57307484 17.672854 50.12666662 33 70 C33.53367188 70.70769531 34.06734375 71.41539062 34.6171875 72.14453125 C44.61966685 84.66175823 59.42797493 92.18918013 74 98 C74.88042969 98.36609375 75.76085937 98.7321875 76.66796875 99.109375 C78.76500594 99.91025353 80.74775594 100.46730956 82.9375 100.9375 C86.59032532 101.80391967 89.70008129 103.18504471 93 105 C92.38125 105.144375 91.7625 105.28875 91.125 105.4375 C88.96741678 105.93152225 88.96741678 105.93152225 87 107 C73.88990835 106.24156495 63.1575451 101.5582517 52 95 C50.64649697 94.22800198 49.292383 93.45707354 47.9375 92.6875 C46.968125 92.130625 45.99875 91.57375 45 91 C45 90.34 45 89.68 45 89 C44.43667969 88.7525 43.87335938 88.505 43.29296875 88.25 C24.87487074 78.20946957 13.41425435 56.77507708 6 38 C5.73566162 37.34435059 5.47132324 36.68870117 5.19897461 36.01318359 C0.62126768 24.3301841 -0.52472011 12.43781013 0 0 Z " fill="#7B29C4" transform="translate(147,258)"/>
<path d="M0 0 C0.66 1.32 1.32 2.64 2 4 C2.66 2.68 3.32 1.36 4 0 C4.495 1.485 4.495 1.485 5 3 C6.98 2.34 8.96 1.68 11 1 C11 2.65 11 4.3 11 6 C11.66 6 12.32 6 13 6 C13.5625 7.9375 13.5625 7.9375 14 10 C13.67 10.33 13.34 10.66 13 11 C13.61875 11.350625 14.2375 11.70125 14.875 12.0625 C19.08067151 15.89708285 19.21632893 21.8416762 19.48242188 27.25390625 C19.50884766 27.95386719 19.53527344 28.65382812 19.5625 29.375 C19.34433907 34.06307532 19.34433907 34.06307532 21 38 C23.32817964 38.36760731 25.6618385 38.70241581 28 39 C28 39.33 28 39.66 28 40 C25.03 40 22.06 40 19 40 C18.505 40.99 18.505 40.99 18 42 C18.66 42 19.32 42 20 42 C20 43.98 20 45.96 20 48 C2.84 48 -14.32 48 -32 48 C-32 43 -32 43 -31 42 C-29.58672053 41.84379445 -28.1664541 41.74943827 -26.74609375 41.68359375 C-25.89208984 41.64169922 -25.03808594 41.59980469 -24.15820312 41.55664062 C-23.26037109 41.51732422 -22.36253906 41.47800781 -21.4375 41.4375 C-20.08495117 41.37272461 -20.08495117 41.37272461 -18.70507812 41.30664062 C-16.47021515 41.20021858 -14.23523692 41.09820012 -12 41 C-12 40.67 -12 40.34 -12 40 C-9.93831015 39.80379233 -7.87559002 39.61839247 -5.8125 39.4375 C-4.08966797 39.28087891 -4.08966797 39.28087891 -2.33203125 39.12109375 C0.68631199 39.01140015 3.08923936 39.25997611 6 40 C6.83024173 26.92369283 2.88362379 14.02722243 -2 2 C-1.34 1.34 -0.68 0.68 0 0 Z " fill="#332F39" transform="translate(345,208)"/>
<path d="M0 0 C1.23556641 0.01740234 1.23556641 0.01740234 2.49609375 0.03515625 C3.32238281 0.04417969 4.14867187 0.05320312 5 0.0625 C5.63808594 0.07410156 6.27617187 0.08570313 6.93359375 0.09765625 C6.93359375 0.42765625 6.93359375 0.75765625 6.93359375 1.09765625 C5.23203125 1.31421875 5.23203125 1.31421875 3.49609375 1.53515625 C0.12582174 1.70937103 0.12582174 1.70937103 -1.06640625 3.09765625 C-1.20302349 5.1165554 -1.29912271 7.13821346 -1.37890625 9.16015625 C-2.60739715 27.53167922 -9.01018182 47.01733706 -19.81640625 61.97265625 C-22.17141057 64.91651846 -22.17141057 64.91651846 -23.06640625 68.09765625 C-23.72640625 68.09765625 -24.38640625 68.09765625 -25.06640625 68.09765625 C-25.29328125 68.79890625 -25.52015625 69.50015625 -25.75390625 70.22265625 C-27.40481913 73.8389416 -29.35728975 76.18535601 -32.06640625 79.09765625 C-32.72640625 79.09765625 -33.38640625 79.09765625 -34.06640625 79.09765625 C-34.56140625 80.08765625 -34.56140625 80.08765625 -35.06640625 81.09765625 C-34.48046875 74.9453125 -34.48046875 74.9453125 -34.06640625 73.09765625 C-33.07640625 72.60265625 -33.07640625 72.60265625 -32.06640625 72.09765625 C-31.34481201 70.45402491 -30.67289204 68.78715239 -30.06640625 67.09765625 C-31.05640625 66.76765625 -32.04640625 66.43765625 -33.06640625 66.09765625 C-33.06640625 64.77765625 -33.06640625 63.45765625 -33.06640625 62.09765625 C-32.40640625 62.09765625 -31.74640625 62.09765625 -31.06640625 62.09765625 C-31.39640625 60.44765625 -31.72640625 58.79765625 -32.06640625 57.09765625 C-31.07640625 57.09765625 -30.08640625 57.09765625 -29.06640625 57.09765625 C-28.73640625 56.10765625 -28.40640625 55.11765625 -28.06640625 54.09765625 C-27.40640625 54.09765625 -26.74640625 54.09765625 -26.06640625 54.09765625 C-24.99187065 52.32126305 -24.99187065 52.32126305 -25.06640625 51.09765625 C-24.69245208 48.3303954 -24.42351996 46.53240338 -22.62890625 44.34765625 C-20.67119694 41.52855485 -20.26712493 39.02145053 -19.62841797 35.68408203 C-19.09212223 33.2160034 -18.39226557 30.88784211 -17.609375 28.48828125 C-15.94836988 23.03877084 -15.10374291 17.61291526 -14.37890625 11.97265625 C-14.24935547 11.01617187 -14.11980469 10.0596875 -13.98632812 9.07421875 C-13.67249874 6.74955663 -13.36597256 4.42419162 -13.06640625 2.09765625 C-12.35613281 2.03707031 -11.64585937 1.97648437 -10.9140625 1.9140625 C-9.53541016 1.78837891 -9.53541016 1.78837891 -8.12890625 1.66015625 C-7.21238281 1.57894531 -6.29585938 1.49773437 -5.3515625 1.4140625 C-2.82741659 1.06456537 -2.48526307 0.117451 0 0 Z " fill="#343236" transform="translate(366.06640625,256.90234375)"/>
<path d="M0 0 C4.875 3.75 4.875 3.75 6 6 C6.49595087 11.45545959 5.82571854 16.43088717 4.51171875 21.71484375 C3.67618099 25.44606199 3.36222726 29.1966138 3 33 C5.64 33 8.28 33 11 33 C11 33.33 11 33.66 11 34 C9.02 34 7.04 34 5 34 C4.67 35.65 4.34 37.3 4 39 C15.88 39.33 27.76 39.66 40 40 C40 41.65 40 43.3 40 45 C23.17 45 6.34 45 -11 45 C-11 42.69 -11 40.38 -11 38 C-12.32 37.34 -13.64 36.68 -15 36 C-13.515 35.505 -13.515 35.505 -12 35 C-10.89800989 29.70106884 -9.90913437 24.41841778 -9.125 19.0625 C-8.15525805 13.20616777 -6.87461734 7.24194926 -4 2 C-1.8671875 0.6953125 -1.8671875 0.6953125 0 0 Z " fill="#343137" transform="translate(145,211)"/>
<path d="M0 0 C0 2.97 0 5.94 0 9 C-0.93199219 9.23074219 -1.86398438 9.46148437 -2.82421875 9.69921875 C-27.19434833 15.93343794 -47.10139731 25.9985321 -63 46 C-64.0625 44.1875 -64.0625 44.1875 -65 42 C-64.67 41.01 -64.34 40.02 -64 39 C-63.34 39 -62.68 39 -62 39 C-61.67 37.35 -61.34 35.7 -61 34 C-59.02 33.34 -57.04 32.68 -55 32 C-54.67 30.35 -54.34 28.7 -54 27 C-52.02 26.34 -50.04 25.68 -48 25 C-48 23.02 -48 21.04 -48 19 C-47.360625 18.731875 -46.72125 18.46375 -46.0625 18.1875 C-43.66868314 17.11332248 -43.66868314 17.11332248 -43 14 C-30.88582066 4.70484353 -15.13469908 -0.31530623 0 0 Z " fill="#8D1DE4" transform="translate(239,151)"/>
<path d="M0 0 C5.62796377 -0.26020969 10.29562517 0.61679331 15.6875 2.1875 C16.47769531 2.41453613 17.26789063 2.64157227 18.08203125 2.87548828 C28.90946398 6.0650842 38.01141899 10.10826578 47 17 C48.26263672 17.93972656 48.26263672 17.93972656 49.55078125 18.8984375 C55.69614148 23.54421222 55.69614148 23.54421222 58 27 C58 27.99 58 28.98 58 30 C58.99 30.66 59.98 31.32 61 32 C61 32.66 61 33.32 61 34 C61.99 34.495 61.99 34.495 63 35 C60.3359375 36.26953125 60.3359375 36.26953125 57 37 C54.3515625 35.32421875 54.3515625 35.32421875 51.625 32.6875 C37.72746405 20.09602408 18.58009853 11.38886981 0 9 C0 6.03 0 3.06 0 0 Z " fill="#9320EA" transform="translate(259,151)"/>
<path d="M0 0 C4.98887101 1.77814017 9.85128465 3.85401233 14.70703125 5.96484375 C14.70703125 6.62484375 14.70703125 7.28484375 14.70703125 7.96484375 C15.49078125 8.27421875 16.27453125 8.58359375 17.08203125 8.90234375 C19.70703125 9.96484375 19.70703125 9.96484375 21.70703125 10.96484375 C21.04703125 12.28484375 20.38703125 13.60484375 19.70703125 14.96484375 C20.36703125 15.29484375 21.02703125 15.62484375 21.70703125 15.96484375 C22.20203125 14.47984375 22.20203125 14.47984375 22.70703125 12.96484375 C23.69703125 12.96484375 24.68703125 12.96484375 25.70703125 12.96484375 C27.70703125 15.96484375 27.70703125 15.96484375 27.70703125 19.96484375 C26.71703125 20.29484375 25.72703125 20.62484375 24.70703125 20.96484375 C24.70703125 21.95484375 24.70703125 22.94484375 24.70703125 23.96484375 C13.69301308 21.24509496 13.69301308 21.24509496 8.70703125 17.96484375 C0.31608424 13.40411726 -9.12244897 11.3786591 -18.29296875 8.96484375 C-18.29296875 8.63484375 -18.29296875 8.30484375 -18.29296875 7.96484375 C-16.64296875 7.63484375 -14.99296875 7.30484375 -13.29296875 6.96484375 C-13.29296875 5.97484375 -13.29296875 4.98484375 -13.29296875 3.96484375 C-14.28296875 3.63484375 -15.27296875 3.30484375 -16.29296875 2.96484375 C-15.30296875 2.63484375 -14.31296875 2.30484375 -13.29296875 1.96484375 C-14.94296875 0.64484375 -16.59296875 -0.67515625 -18.29296875 -2.03515625 C-13.03625834 -4.66351146 -5.29491971 -1.6760297 0 0 Z " fill="#3C3840" transform="translate(284.29296875,143.03515625)"/>
<path d="M0 0 C-1.98 0.99 -1.98 0.99 -4 2 C-4 3.65 -4 5.3 -4 7 C-4.66 7 -5.32 7 -6 7 C-6 7.66 -6 8.32 -6 9 C-5.34 9.33 -4.68 9.66 -4 10 C-4.96679688 10.12117187 -5.93359375 10.24234375 -6.9296875 10.3671875 C-15.84551838 11.51476969 -24.60810258 12.82755682 -33.3125 15.125 C-36.40812012 15.85955393 -38.85142195 16.19678613 -42 16 C-42.33 15.34 -42.66 14.68 -43 14 C-43.66 14 -44.32 14 -45 14 C-45 13.01 -45 12.02 -45 11 C-47.51083114 12.25541557 -47.87125446 13.50063488 -49 16 C-51.31 16 -53.62 16 -56 16 C-53.94303233 12.91454849 -53.19533151 12.35867949 -50 10.84375 C-49.19433594 10.46089844 -48.38867188 10.07804688 -47.55859375 9.68359375 C-46.71425781 9.29300781 -45.86992187 8.90242187 -45 8.5 C-44.18660156 8.10941406 -43.37320313 7.71882812 -42.53515625 7.31640625 C-31.96425892 2.35660134 -10.63595597 -7.09063731 0 0 Z " fill="#353337" transform="translate(243,141)"/>
<path d="M0 0 C0.66 0 1.32 0 2 0 C2 0.99 2 1.98 2 3 C2.99 2.67 3.98 2.34 5 2 C5.495 2.99 5.495 2.99 6 4 C6.969375 3.855625 7.93875 3.71125 8.9375 3.5625 C13.28052169 2.93952558 17.63765234 2.46492141 22 2 C19.26524895 3.82316736 16.50947246 5.24121236 13.55444336 6.66455078 C4.56650273 11.00770281 -3.45259731 15.84702771 -11 22.4375 C-14 25 -14 25 -16 25 C-16.28875 25.639375 -16.5775 26.27875 -16.875 26.9375 C-18 29 -18 29 -20 30 C-20.33 29.01 -20.66 28.02 -21 27 C-23.43276386 25.81480735 -25.28017286 25 -28 25 C-28 22 -28 22 -26.6875 20.625 C-26.130625 20.08875 -25.57375 19.5525 -25 19 C-24.566875 18.21625 -24.13375 17.4325 -23.6875 16.625 C-21.51908207 13.25190544 -19.21592083 11.39483466 -16 9 C-15.34 9 -14.68 9 -14 9 C-14 8.34 -14 7.68 -14 7 C-6.71428571 3.57142857 -6.71428571 3.57142857 -2 4 C-1.34 2.68 -0.68 1.36 0 0 Z " fill="#2D2931" transform="translate(196,152)"/>
<path d="M0 0 C2.64 0 5.28 0 8 0 C9.73757203 21.47832094 0.88423059 43.5471585 -11 61 C-12.76953125 62.91796875 -12.76953125 62.91796875 -14 64 C-14 61.69 -14 59.38 -14 57 C-14.66 56.67 -15.32 56.34 -16 56 C-15.63648438 55.48695313 -15.27296875 54.97390625 -14.8984375 54.4453125 C-4.52043772 38.63882053 -0.81842617 18.56980757 0 0 Z " fill="#6922AB" transform="translate(343,258)"/>
<path d="M0 0 C4.75481646 0.57634139 7.97048212 2.55068521 12 5 C12 5.66 12 6.32 12 7 C12.53625 7.0825 13.0725 7.165 13.625 7.25 C16.87340691 8.27581271 19.28751859 9.96563894 22 12 C22 12.66 22 13.32 22 14 C22.8353125 14.0928125 22.8353125 14.0928125 23.6875 14.1875 C27.00943148 15.35466511 28.59981091 17.43235585 31 20 C32.2668682 21.27478613 33.53781763 22.5455274 34.8125 23.8125 C35.875 24.875 36.9375 25.9375 38 27 C37.67 27.66 37.34 28.32 37 29 C33.00820257 30.33059914 30.73682109 29.81502739 27 28 C26.67 28.99 26.34 29.98 26 31 C21.22199973 30.55288438 18.514272 28.27685804 15.0625 25.1875 C11.20673787 21.7994045 7.32251876 18.76357757 3 16 C3.66 15.67 4.32 15.34 5 15 C7.625 15.9375 7.625 15.9375 10 17 C9.67 15.35 9.34 13.7 9 12 C10.32 12.33 11.64 12.66 13 13 C12.34 12.01 11.68 11.02 11 10 C11 8.68 11 7.36 11 6 C10.01 6 9.02 6 8 6 C7.67 7.32 7.34 8.64 7 10 C6.01 9.01 5.02 8.02 4 7 C4.66 6.34 5.32 5.68 6 5 C5.01 4.360625 4.02 3.72125 3 3.0625 C2.01 2.381875 1.02 1.70125 0 1 C0 0.67 0 0.34 0 0 Z " fill="#3A3A3D" transform="translate(299,150)"/>
<path d="M0 0 C6.14674257 6.14674257 9.17004932 22.55956318 9.1875 31.25 C9.0946875 32.61125 9.0946875 32.61125 9 34 C5.7 34 2.4 34 -1 34 C-1.18175781 32.96101563 -1.36351562 31.92203125 -1.55078125 30.8515625 C-2.94154978 23.0759445 -4.4579687 15.49989375 -7 8 C-6.34 8 -5.68 8 -5 8 C-5 7.01 -5 6.02 -5 5 C-3.68 4.67 -2.36 4.34 -1 4 C-0.67 2.68 -0.34 1.36 0 0 Z " fill="#861BE4" transform="translate(343,211)"/>
<path d="M0 0 C0.99128906 0.57621094 1.98257813 1.15242188 3.00390625 1.74609375 C6.91925628 3.98188956 10.90621459 6.04491357 14.9375 8.0625 C15.93426758 8.57006836 15.93426758 8.57006836 16.95117188 9.08789062 C22.80719361 12.02442141 28.71608766 14.53347921 35.125 16 C38.71318038 16.83676934 41.7622528 18.21923904 45 20 C44.38125 20.144375 43.7625 20.28875 43.125 20.4375 C40.96741678 20.93152225 40.96741678 20.93152225 39 22 C25.88990835 21.24156495 15.1575451 16.5582517 4 10 C2.64649697 9.22800198 1.292383 8.45707354 -0.0625 7.6875 C-1.031875 7.130625 -2.00125 6.57375 -3 6 C-3 5.34 -3 4.68 -3 4 C-3.66 3.67 -4.32 3.34 -5 3 C-3.35 2.67 -1.7 2.34 0 2 C0 1.34 0 0.68 0 0 Z " fill="#7726C3" transform="translate(195,343)"/>
<path d="M0 0 C0.66 0.33 1.32 0.66 2 1 C1.67 1.99 1.34 2.98 1 4 C0.01 4 -0.98 4 -2 4 C-2 5.98 -2 7.96 -2 10 C-2.639375 10.12375 -3.27875 10.2475 -3.9375 10.375 C-4.618125 10.58125 -5.29875 10.7875 -6 11 C-7.0206355 12.97653218 -7.0206355 12.97653218 -7.8125 15 C-9.24550203 17.4134771 -10.40349591 18.02631097 -13 19 C-13.66 19 -14.32 19 -15 19 C-15.28875 19.78375 -15.5775 20.5675 -15.875 21.375 C-17 24 -17 24 -19 26 C-18.7525 26.845625 -18.505 27.69125 -18.25 28.5625 C-17.86619609 33.83980371 -20.88391507 36.93554139 -24 41 C-28.70941496 36.77360196 -28.70941496 36.77360196 -29.87890625 33.66015625 C-30.12729827 28.2035444 -25.32594996 23.99803311 -22 20 C-19.76030176 17.5550341 -17.41748544 15.26714431 -15 13 C-14.236875 12.195625 -13.47375 11.39125 -12.6875 10.5625 C-8.69202899 6.75286485 -4.34504132 3.40010029 0 0 Z " fill="#8820DA" transform="translate(194,166)"/>
<path d="M0 0 C17.16 0 34.32 0 52 0 C52 1.65 52 3.3 52 5 C34.84 5 17.68 5 0 5 C0 3.35 0 1.7 0 0 Z " fill="#7D1EC7" transform="translate(313,251)"/>
<path d="M0 0 C16.83 0 33.66 0 51 0 C51 1.65 51 3.3 51 5 C34.17 5 17.34 5 0 5 C0 3.35 0 1.7 0 0 Z " fill="#851BD0" transform="translate(134,251)"/>
<path d="M0 0 C1.32 0 2.64 0 4 0 C4 0.66 4 1.32 4 2 C5.175625 2.4640625 5.175625 2.4640625 6.375 2.9375 C9 4 9 4 11 5 C10.34 6.32 9.68 7.64 9 9 C9.66 9.33 10.32 9.66 11 10 C11.33 9.01 11.66 8.02 12 7 C12.99 7 13.98 7 15 7 C17 10 17 10 17 14 C16.01 14.33 15.02 14.66 14 15 C14 15.99 14 16.98 14 18 C2.98598183 15.28025121 2.98598183 15.28025121 -2 12 C-3.49159972 11.31474478 -4.99265473 10.64988821 -6.5 10 C-9.83490978 8.55245986 -12.93741418 6.97586182 -16 5 C-15.67 4.34 -15.34 3.68 -15 3 C-11.71585695 2.04932701 -10.30306592 1.89897803 -7 3 C-5.33378384 3.03874921 -3.66605828 3.0450286 -2 3 C-1.67 3.66 -1.34 4.32 -1 5 C-0.34 5 0.32 5 1 5 C1 4.34 1 3.68 1 3 C0.34 3 -0.32 3 -1 3 C-0.67 2.01 -0.34 1.02 0 0 Z " fill="#28262C" transform="translate(295,149)"/>
<path d="M0 0 C0.66 0 1.32 0 2 0 C2 0.99 2 1.98 2 3 C1.34 3 0.68 3 0 3 C0.34786708 4.97536745 0.34786708 4.97536745 1 7 C1.66 7.33 2.32 7.66 3 8 C2.690625 8.886875 2.38125 9.77375 2.0625 10.6875 C1.1709329 13.46709155 0.50622993 16.13136375 0 19 C-0.66 19 -1.32 19 -2 19 C-2.33 20.32 -2.66 21.64 -3 23 C-10.71428571 25 -10.71428571 25 -14 25 C-14.99 25.66 -15.98 26.32 -17 27 C-17.99 27 -18.98 27 -20 27 C-20.268125 27.61875 -20.53625 28.2375 -20.8125 28.875 C-22 31 -22 31 -25 33 C-25.33 31.68 -25.66 30.36 -26 29 C-25.16597656 28.26136719 -24.33195312 27.52273438 -23.47265625 26.76171875 C-15.18884049 19.33059429 -7.61346065 11.74228175 -1.5625 2.3125 C-1.046875 1.549375 -0.53125 0.78625 0 0 Z " fill="#26222B" transform="translate(333,316)"/>
<path d="M0 0 C3.96 0.33 7.92 0.66 12 1 C13.125 7.75 13.125 7.75 12 10 C9.6015625 10.37890625 9.6015625 10.37890625 6.625 10.5625 C3.46357425 10.76686657 1.01866352 10.99377883 -2 12 C-3.39439664 12.06665376 -4.79169875 12.08538199 -6.1875 12.0625 C-8.0746875 12.0315625 -8.0746875 12.0315625 -10 12 C-9.97292969 13.14597656 -9.94585937 14.29195313 -9.91796875 15.47265625 C-9.92089351 19.90366971 -10.50560616 24.08888143 -11.3125 28.4375 C-11.44712646 29.18177246 -11.58175293 29.92604492 -11.72045898 30.69287109 C-12.5899669 35.31374235 -13.67166867 39.7340641 -15.31640625 44.1484375 C-15.99167975 45.97746401 -16.49763499 47.8661312 -17 49.75 C-18 53 -18 53 -19.6875 55.6875 C-21.25132108 57.89906236 -21.25132108 57.89906236 -20.6875 60.3125 C-20.460625 60.869375 -20.23375 61.42625 -20 62 C-20.804375 62.2475 -21.60875 62.495 -22.4375 62.75 C-25.171081 63.72238859 -25.171081 63.72238859 -25.8125 66.125 C-25.874375 66.74375 -25.93625 67.3625 -26 68 C-26.66 68 -27.32 68 -28 68 C-26.74894545 63.95037793 -25.22278812 60.39827597 -23.1875 56.6875 C-15.8260192 42.07200528 -13.50261662 26.01122746 -11 10 C-7.8241293 9.33538984 -4.93508762 8.88245614 -1.6875 8.9375 C0.1378125 8.9684375 0.1378125 8.9684375 2 9 C2 7.02 2 5.04 2 3 C1.34 3 0.68 3 0 3 C0 2.01 0 1.02 0 0 Z " fill="#27272A" transform="translate(363,247)"/>
<path d="M0 0 C6.15234375 -0.09765625 6.15234375 -0.09765625 8 0 C9 1 9 1 9 6 C12.3 6 15.6 6 19 6 C19.33 5.34 19.66 4.68 20 4 C20.5625 5.9375 20.5625 5.9375 21 8 C20.67 8.33 20.34 8.66 20 9 C19.95936168 10.66617115 19.957279 12.33388095 20 14 C20.66 14.33 21.32 14.66 22 15 C16.51690266 17.4529646 11.77063755 17.02750561 6 16 C5.34 15.67 4.68 15.34 4 15 C4 12.36 4 9.72 4 7 C-1.94 6.01 -1.94 6.01 -8 5 C-8 4.67 -8 4.34 -8 4 C-6.14375 4.0309375 -6.14375 4.0309375 -4.25 4.0625 C-1.3359175 4.06766681 1.20953327 3.93015558 4 3 C2.68 2.01 1.36 1.02 0 0 Z " fill="#6A28A8" transform="translate(234,360)"/>
<path d="M0 0 C6.21736987 -0.41449132 12.22990364 0.57416364 18 3 C18.33 3.99 18.66 4.98 19 6 C21.00016466 7.20882096 21.00016466 7.20882096 23 8 C17.85828343 12.03992016 17.85828343 12.03992016 14.3125 11.875 C13.219375 11.58625 12.12625 11.2975 11 11 C9.04370958 10.63471756 7.08517182 10.28134576 5.125 9.9375 C3.41658805 9.62543008 1.70822826 9.31307386 0 9 C0 6.03 0 3.06 0 0 Z " fill="#9825F0" transform="translate(259,151)"/>
<path d="M0 0 C2.76276177 0.52268466 5.3260876 1.10869587 8 2 C8.66 1.835 9.32 1.67 10 1.5 C12 1 12 1 15 2 C15.8125 4.125 15.8125 4.125 16 7 C14.54099238 9.22661984 12.80208169 11.02210546 11 13 C11 13.66 11 14.32 11 15 C11.99 15.33 12.98 15.66 14 16 C13.67 18.31 13.34 20.62 13 23 C12.43539063 22.29101562 11.87078125 21.58203125 11.2890625 20.8515625 C8.23499376 17.04700587 5.12737451 13.28734783 2.0234375 9.5234375 C0 7 0 7 -2 4 C-1.34 3.67 -0.68 3.34 0 3 C0 2.01 0 1.02 0 0 Z " fill="#2C2A31" transform="translate(324,177)"/>
<path d="M0 0 C0.92232422 0.00451172 1.84464844 0.00902344 2.79492188 0.01367188 C5.05085048 0.02536062 7.30663967 0.04174545 9.5625 0.0625 C6.55081664 3.41167984 3.32608309 4.20643728 -0.9375 5.25 C-1.61425781 5.42724609 -2.29101562 5.60449219 -2.98828125 5.78710938 C-5.88321703 6.52654563 -8.43817906 7.0625 -11.4375 7.0625 C-11.4375 9.7025 -11.4375 12.3425 -11.4375 15.0625 C-13.4175 15.0625 -15.3975 15.0625 -17.4375 15.0625 C-17.81883299 13.0710944 -18.15075582 11.06970923 -18.4375 9.0625 C-18.1075 8.7325 -17.7775 8.4025 -17.4375 8.0625 C-17.39657063 5.72952567 -17.39508277 3.39544775 -17.4375 1.0625 C-11.58861957 0.04355924 -5.92830831 -0.05548453 0 0 Z " fill="#7325B9" transform="translate(271.4375,358.9375)"/>
<path d="M0 0 C-1.34634457 4.4062186 -3.19374374 6.43077702 -7 9 C-7.66 9 -8.32 9 -9 9 C-9.33 9.99 -9.66 10.98 -10 12 C-11.9609375 13.859375 -11.9609375 13.859375 -14.375 15.75 C-15.16648437 16.38421875 -15.95796875 17.0184375 -16.7734375 17.671875 C-17.87558594 18.32929688 -17.87558594 18.32929688 -19 19 C-19.99 18.67 -20.98 18.34 -22 18 C-22.875 16.25 -22.875 16.25 -23 14 C-21.75 11.5 -21.75 11.5 -20 9 C-19.608125 8.319375 -19.21625 7.63875 -18.8125 6.9375 C-16.06955158 4.00538273 -12.63011818 2.6210504 -9 1 C-9 1.66 -9 2.32 -9 3 C-8.071875 2.505 -7.14375 2.01 -6.1875 1.5 C-3 0 -3 0 0 0 Z " fill="#302E32" transform="translate(330,338)"/>
<path d="M0 0 C2.20665378 3.30998068 2.9627384 6.38974054 3.875 10.1875 C4.97490313 14.59556112 6.14149466 18.73101087 8.3125 22.75 C8.869375 23.8225 9.42625 24.895 10 26 C9.67 26.99 9.34 27.98 9 29 C8.34 29 7.68 29 7 29 C7 28.34 7 27.68 7 27 C5.35 27.33 3.7 27.66 2 28 C0.95803611 25.65331612 -0.05816553 23.30024695 -1.0625 20.9375 C-1.35705078 20.28072266 -1.65160156 19.62394531 -1.95507812 18.94726562 C-3.96756096 14.14098308 -4.15797484 11.08847232 -3 6 C-2.01 6.99 -1.02 7.98 0 9 C0 6.03 0 3.06 0 0 Z " fill="#732BB9" transform="translate(156,280)"/>
<path d="M0 0 C4.75481646 0.57634139 7.97048212 2.55068521 12 5 C12 5.66 12 6.32 12 7 C12.53625 7.0825 13.0725 7.165 13.625 7.25 C16.87340691 8.27581271 19.28751859 9.96563894 22 12 C22 12.66 22 13.32 22 14 C23.32 14.33 24.64 14.66 26 15 C26 15.66 26 16.32 26 17 C25.34 17 24.68 17 24 17 C24.33 17.99 24.66 18.98 25 20 C24.34 20.66 23.68 21.32 23 22 C21.39925444 19.45335934 20.02375751 17.06149002 18.9375 14.25 C18.22002336 11.83767007 18.22002336 11.83767007 16 11 C15.67 11.66 15.34 12.32 15 13 C14.34 13 13.68 13 13 13 C11 10 11 10 11 6 C10.01 6 9.02 6 8 6 C7.67 7.32 7.34 8.64 7 10 C6.01 9.01 5.02 8.02 4 7 C4.66 6.34 5.32 5.68 6 5 C5.01 4.360625 4.02 3.72125 3 3.0625 C2.01 2.381875 1.02 1.70125 0 1 C0 0.67 0 0.34 0 0 Z M9 12 C11.475 12.99 11.475 12.99 14 14 C14 16.62113708 13.68707555 18.50935112 13 21 C9.60406522 21 8.93380119 20.47834052 6.3125 18.5 C5.68988281 18.0359375 5.06726563 17.571875 4.42578125 17.09375 C3.95527344 16.7328125 3.48476563 16.371875 3 16 C3.66 15.67 4.32 15.34 5 15 C7.625 15.9375 7.625 15.9375 10 17 C9.67 15.35 9.34 13.7 9 12 Z " fill="#2A2630" transform="translate(299,150)"/>
<path d="M0 0 C2.60895459 2.60895459 3.10973264 4.98266538 4.1875 8.5 C4.55230469 9.6653125 4.91710937 10.830625 5.29296875 12.03125 C6 15 6 15 5 17 C4.34 15.02 3.68 13.04 3 11 C2.34 11 1.68 11 1 11 C-0.1161656 14.71429898 -0.3124195 18.39161508 -0.5625 22.25 C-0.68818359 24.14492187 -0.68818359 24.14492187 -0.81640625 26.078125 C-0.87699219 27.04234375 -0.93757813 28.0065625 -1 29 C-1.33 29 -1.66 29 -2 29 C-2.19335938 28.154375 -2.38671875 27.30875 -2.5859375 26.4375 C-4.00027484 20.2760304 -5.43850261 14.12587437 -7 8 C-6.34 8 -5.68 8 -5 8 C-5 7.01 -5 6.02 -5 5 C-3.68 4.67 -2.36 4.34 -1 4 C-0.67 2.68 -0.34 1.36 0 0 Z " fill="#7F1DD6" transform="translate(343,211)"/>
<path d="M0 0 C0.33 0 0.66 0 1 0 C1.60220857 11.04049038 -0.45650216 22.78869493 -4.31640625 33.1484375 C-4.99167975 34.97746401 -5.49763499 36.8661312 -6 38.75 C-7 42 -7 42 -8.6875 44.6875 C-10.25132108 46.89906236 -10.25132108 46.89906236 -9.6875 49.3125 C-9.460625 49.869375 -9.23375 50.42625 -9 51 C-9.804375 51.2475 -10.60875 51.495 -11.4375 51.75 C-14.171081 52.72238859 -14.171081 52.72238859 -14.8125 55.125 C-14.874375 55.74375 -14.93625 56.3625 -15 57 C-15.66 57 -16.32 57 -17 57 C-15.74894545 52.95037793 -14.22278812 49.39827597 -12.1875 45.6875 C-4.98690161 31.40894114 -2.57256502 15.63831509 0 0 Z " fill="#1E162A" transform="translate(352,258)"/>
<path d="M0 0 C0 2.97 0 5.94 0 9 C-10.36585366 12.31707317 -10.36585366 12.31707317 -15 10 C-15 9.34 -15 8.68 -15 8 C-13.02 7.34 -11.04 6.68 -9 6 C-9 5.34 -9 4.68 -9 4 C-9.99 3.67 -10.98 3.34 -12 3 C-11 1 -11 1 -9.375 0.375 C-6.2339425 -0.12095645 -3.17398169 -0.06103811 0 0 Z " fill="#921FEC" transform="translate(239,151)"/>
<path d="M0 0 C0.33 0.66 0.66 1.32 1 2 C0.01 3.485 0.01 3.485 -1 5 C-1.66 5 -2.32 5 -3 5 C-3 5.99 -3 6.98 -3 8 C-1.35 7.67 0.3 7.34 2 7 C2 7.66 2 8.32 2 9 C2.99 9.33 3.98 9.66 5 10 C4.58578031 14.83256305 2.53586014 16.82679218 -1 20 C-1.66 19.34 -2.32 18.68 -3 18 C-2.67 17.67 -2.34 17.34 -2 17 C-1.7367754 13.05163095 -1.91002627 10.39620731 -4 7 C-4.66 7 -5.32 7 -6 7 C-6.28875 7.639375 -6.5775 8.27875 -6.875 8.9375 C-8 11 -8 11 -10 12 C-8.43873668 8.16780823 -5.97133075 5.82638778 -3 3 C-2.401875 2.401875 -1.80375 1.80375 -1.1875 1.1875 C-0.795625 0.795625 -0.40375 0.40375 0 0 Z " fill="#4B4650" transform="translate(171,169)"/>
<path d="M0 0 C1.875 0.625 1.875 0.625 4 2 C5.62344752 5.63343017 6.27596315 7.17211056 5 11 C4.34 11 3.68 11 3 11 C3 11.66 3 12.32 3 13 C3.66 13.33 4.32 13.66 5 14 C3.02 14.99 3.02 14.99 1 16 C-2.93846154 11.69230769 -2.93846154 11.69230769 -3.25 8.1875 C-3.1675 7.465625 -3.085 6.74375 -3 6 C-2.34 5.67 -1.68 5.34 -1 5 C-1.33 4.34 -1.66 3.68 -2 3 C-1.34 3 -0.68 3 0 3 C0 2.01 0 1.02 0 0 Z " fill="#27252C" transform="translate(314,160)"/>
<path d="M0 0 C2.15307714 3.22961572 2.77234869 5.61127654 3.625 9.375 C3.88539063 10.49648437 4.14578125 11.61796875 4.4140625 12.7734375 C5 16 5 16 5 21 C8.3 21 11.6 21 15 21 C14.67 21.99 14.34 22.98 14 24 C10.7 23.67 7.4 23.34 4 23 C4 22.34 4 21.68 4 21 C3.34 21 2.68 21 2 21 C0.27669093 13.90673679 -0.2494783 7.29031024 0 0 Z " fill="#281F34" transform="translate(337,224)"/>
<path d="M0 0 C0.66 1.32 1.32 2.64 2 4 C2.66 2.68 3.32 1.36 4 0 C4.33 0.99 4.66 1.98 5 3 C6.98 2.34 8.96 1.68 11 1 C10.67 2.98 10.34 4.96 10 7 C9.01 6.67 8.02 6.34 7 6 C6.67 7.65 6.34 9.3 6 11 C4.68 11.33 3.36 11.66 2 12 C0.68 8.7 -0.64 5.4 -2 2 C-1.34 1.34 -0.68 0.68 0 0 Z " fill="#29262E" transform="translate(345,208)"/>
<path d="M0 0 C0.33 0.66 0.66 1.32 1 2 C1.61875 1.79375 2.2375 1.5875 2.875 1.375 C3.57625 1.25125 4.2775 1.1275 5 1 C5.66 1.66 6.32 2.32 7 3 C6.875 5.9375 6.875 5.9375 6 9 C3.9375 10.875 3.9375 10.875 2 12 C1.67 11.01 1.34 10.02 1 9 C-1.43276386 7.81480735 -3.28017286 7 -6 7 C-6 4 -6 4 -4.125 1.8125 C-2 0 -2 0 0 0 Z " fill="#27252A" transform="translate(174,170)"/>
<path d="M0 0 C2.77042109 2.77042109 2.39796106 4.76533805 2.625 8.625 C2.69976562 9.81351563 2.77453125 11.00203125 2.8515625 12.2265625 C2.92503906 13.59941406 2.92503906 13.59941406 3 15 C-0.3 15 -3.6 15 -7 15 C-6.67 14.01 -6.34 13.02 -6 12 C-5.34 12 -4.68 12 -4 12 C-3.67 10.35 -3.34 8.7 -3 7 C-2.34 7 -1.68 7 -1 7 C-0.67 4.69 -0.34 2.38 0 0 Z " fill="#7A12D7" transform="translate(349,230)"/>
<path d="M0 0 C6.0546875 -0.1953125 6.0546875 -0.1953125 8 0 C8.66 0.66 9.32 1.32 10 2 C9.01 2 8.02 2 7 2 C7 2.66 7 3.32 7 4 C6.01 4.33 5.02 4.66 4 5 C4.33 5.33 4.66 5.66 5 6 C5.04092937 8.33297433 5.04241723 10.66705225 5 13 C3.35 13.33 1.7 13.66 0 14 C-0.38133299 12.0085944 -0.71325582 10.00720923 -1 8 C-0.67 7.67 -0.34 7.34 0 7 C0.04092937 4.66702567 0.04241723 2.33294775 0 0 Z " fill="#8025C9" transform="translate(254,360)"/>
<path d="M0 0 C7.92 0 15.84 0 24 0 C23.67 0.99 23.34 1.98 23 3 C15.41 3 7.82 3 0 3 C0 2.01 0 1.02 0 0 Z " fill="#8D17E1" transform="translate(314,252)"/>
<path d="M0 0 C1.5625 1.125 1.5625 1.125 3 3 C2.81878333 7.25859163 1.81307141 9.82000623 -1 13 C-2.65 12.67 -4.3 12.34 -6 12 C-4.43358249 7.69235185 -2.31663844 3.93828536 0 0 Z " fill="#7E1ECC" transform="translate(163,199)"/>
<path d="M0 0 C2.91691525 -0.05401695 5.83282724 -0.09368066 8.75 -0.125 C9.575 -0.14175781 10.4 -0.15851563 11.25 -0.17578125 C12.04921875 -0.18222656 12.8484375 -0.18867188 13.671875 -0.1953125 C14.4050293 -0.20578613 15.13818359 -0.21625977 15.89355469 -0.22705078 C18.29896076 0.03222456 19.91251494 0.80774075 22 2 C21 3 21 3 18.95874023 3.11352539 C18.08419189 3.10828857 17.20964355 3.10305176 16.30859375 3.09765625 C15.36435547 3.09443359 14.42011719 3.09121094 13.44726562 3.08789062 C12.45404297 3.07951172 11.46082031 3.07113281 10.4375 3.0625 C9.44041016 3.05798828 8.44332031 3.05347656 7.41601562 3.04882812 C4.94395151 3.03700007 2.47200482 3.02051849 0 3 C0 2.01 0 1.02 0 0 Z " fill="#9B1DE9" transform="translate(134,252)"/>
<path d="M0 0 C0.721875 0.495 1.44375 0.99 2.1875 1.5 C5.14848659 3.07919285 6.71253029 3.28178312 10 3 C10.66 4.98 11.32 6.96 12 9 C10.35 9.66 8.7 10.32 7 11 C5.82439821 9.73742767 4.65977135 8.46462916 3.5 7.1875 C2.8503125 6.47980469 2.200625 5.77210938 1.53125 5.04296875 C0 3 0 3 0 0 Z " fill="#2B2B30" transform="translate(159,328)"/>
<path d="M0 0 C1.4540625 0.61875 1.4540625 0.61875 2.9375 1.25 C3.2675 2.24 3.5975 3.23 3.9375 4.25 C4.9275 4.58 5.9175 4.91 6.9375 5.25 C6.9375 5.91 6.9375 6.57 6.9375 7.25 C9.2475 7.58 11.5575 7.91 13.9375 8.25 C14.2675 9.24 14.5975 10.23 14.9375 11.25 C7.693202 9.11233829 1.47031715 6.02315981 -5.0625 2.25 C-5.0625 1.59 -5.0625 0.93 -5.0625 0.25 C-3.0625 -0.75 -3.0625 -0.75 0 0 Z " fill="#2E243A" transform="translate(205.0625,344.75)"/>
<path d="M0 0 C-0.94875 0.391875 -1.8975 0.78375 -2.875 1.1875 C-6.34127338 3.19793856 -6.9802693 4.22699642 -8 8 C-8.66 8 -9.32 8 -10 8 C-10 7.01 -10 6.02 -10 5 C-12.51083114 6.25541557 -12.87125446 7.50063488 -14 10 C-16.31 10 -18.62 10 -21 10 C-18.34097584 6.01146375 -15.27959921 4.82702336 -11.0625 2.75 C-10.33353516 2.37359375 -9.60457031 1.9971875 -8.85351562 1.609375 C-8.15033203 1.25875 -7.44714844 0.908125 -6.72265625 0.546875 C-6.08078369 0.22557617 -5.43891113 -0.09572266 -4.77758789 -0.42675781 C-3 -1 -3 -1 0 0 Z " fill="#8C8B8D" transform="translate(208,147)"/>
<path d="M0 0 C4.29 0 8.58 0 13 0 C13 0.66 13 1.32 13 2 C10.36 2.33 7.72 2.66 5 3 C3.19682779 6.96697886 2.50797009 10.6822542 2 15 C1.67 15 1.34 15 1 15 C0.67 10.05 0.34 5.1 0 0 Z " fill="#201E22" transform="translate(134,256)"/>
<path d="M0 0 C1.32 0.33 2.64 0.66 4 1 C3.01 5.29 2.02 9.58 1 14 C0.67 14 0.34 14 0 14 C0 12.02 0 10.04 0 8 C-0.99 8 -1.98 8 -3 8 C-1.125 2.25 -1.125 2.25 0 0 Z " fill="#2A2631" transform="translate(147,224)"/>
<path d="M0 0 C1.98 0.99 3.96 1.98 6 3 C6 3.66 6 4.32 6 5 C7.32 5.33 8.64 5.66 10 6 C10 6.66 10 7.32 10 8 C9.34 8 8.68 8 8 8 C8.33 8.99 8.66 9.98 9 11 C8.34 11.66 7.68 12.32 7 13 C5.39925444 10.45335934 4.02375751 8.06149002 2.9375 5.25 C2.22002336 2.83767007 2.22002336 2.83767007 0 2 C0 1.34 0 0.68 0 0 Z " fill="#656567" transform="translate(315,159)"/>
<path d="M0 0 C0.99 0.66 1.98 1.32 3 2 C2.375 4.8125 2.375 4.8125 1 8 C-2.125 9.875 -2.125 9.875 -5 11 C-4.67558396 9.33157466 -4.34060811 7.66519519 -4 6 C-3.87625 5.278125 -3.7525 4.55625 -3.625 3.8125 C-3 2 -3 2 0 0 Z " fill="#272529" transform="translate(145,211)"/>
<path d="M0 0 C0.33 0.66 0.66 1.32 1 2 C1.66 2 2.32 2 3 2 C3.33 1.34 3.66 0.68 4 0 C3.67 1.32 3.34 2.64 3 4 C1.58622218 4.36552803 0.16879424 4.71695495 -1.25 5.0625 C-2.03890625 5.25972656 -2.8278125 5.45695313 -3.640625 5.66015625 C-6.10394822 6.01497267 -7.65604132 5.76877544 -10 5 C-9.67 4.01 -9.34 3.02 -9 2 C-6.03 2 -3.06 2 0 2 C0 1.34 0 0.68 0 0 Z " fill="#29272C" transform="translate(234,144)"/>
<path d="M0 0 C4.75481646 0.57634139 7.97048212 2.55068521 12 5 C12 5.66 12 6.32 12 7 C13.32 7.33 14.64 7.66 16 8 C14.02 8.99 14.02 8.99 12 10 C11.67 8.68 11.34 7.36 11 6 C10.01 6 9.02 6 8 6 C7.67 7.32 7.34 8.64 7 10 C6.01 9.01 5.02 8.02 4 7 C4.66 6.34 5.32 5.68 6 5 C5.01 4.360625 4.02 3.72125 3 3.0625 C2.01 2.381875 1.02 1.70125 0 1 C0 0.67 0 0.34 0 0 Z " fill="#808082" transform="translate(299,150)"/>
<path d="M0 0 C1.65 0.33 3.3 0.66 5 1 C4.01 1.33 3.02 1.66 2 2 C1.67 3.65 1.34 5.3 1 7 C0.01 7 -0.98 7 -2 7 C-2.33 7.99 -2.66 8.98 -3 10 C-3.66 10 -4.32 10 -5 10 C-3.66511872 6.40608886 -2.03977277 3.24509304 0 0 Z " fill="#2F263A" transform="translate(170,206)"/>
<path d="M0 0 C3.3 0.99 6.6 1.98 10 3 C9.67 3.66 9.34 4.32 9 5 C6.93359375 5.4140625 6.93359375 5.4140625 4.4375 5.625 C3.61121094 5.69976562 2.78492188 5.77453125 1.93359375 5.8515625 C0.97646484 5.92503906 0.97646484 5.92503906 0 6 C0 4.02 0 2.04 0 0 Z " fill="#2C2233" transform="translate(216,361)"/>
<path d="M0 0 C0.66 0.33 1.32 0.66 2 1 C0.68 3.64 -0.64 6.28 -2 9 C-4.31 9 -6.62 9 -9 9 C-8.06725891 7.87105124 -7.12859878 6.74699124 -6.1875 5.625 C-5.66542969 4.99851562 -5.14335937 4.37203125 -4.60546875 3.7265625 C-3 2 -3 2 0 0 Z " fill="#EEEEEE" transform="translate(203,266)"/>
<path d="M0 0 C6.6 0 13.2 0 20 0 C20 0.99 20 1.98 20 3 C17.03 3 14.06 3 11 3 C11 2.67 11 2.34 11 2 C7.37 1.67 3.74 1.34 0 1 C0 0.67 0 0.34 0 0 Z " fill="#8E1ECE" transform="translate(344,252)"/>
<path d="M0 0 C1.5778125 0.4021875 1.5778125 0.4021875 3.1875 0.8125 C2.8575 1.8025 2.5275 2.7925 2.1875 3.8125 C-0.56328884 4.72942961 -2.17198913 4.92136083 -5 4.875 C-6.8871875 4.8440625 -6.8871875 4.8440625 -8.8125 4.8125 C-4.75096154 -0.23365385 -4.75096154 -0.23365385 0 0 Z " fill="#28252A" transform="translate(288.8125,358.1875)"/>
<path d="M0 0 C0 2.83967231 -0.40267181 5.23735711 -1 8 C-1.99 7.34 -2.98 6.68 -4 6 C-3.34 5.01 -2.68 4.02 -2 3 C-3.32 3 -4.64 3 -6 3 C-7.77409808 4.92022703 -7.77409808 4.92022703 -9 7 C-9 6.34 -9 5.68 -9 5 C-9.66 4.67 -10.32 4.34 -11 4 C-9.73760288 3.13341385 -8.46472499 2.28207941 -7.1875 1.4375 C-6.47980469 0.96183594 -5.77210938 0.48617187 -5.04296875 -0.00390625 C-3 -1 -3 -1 0 0 Z " fill="#821CD2" transform="translate(207,161)"/>
<path d="M0 0 C7.48291572 6.15034169 7.48291572 6.15034169 10 10 C7.0625 9.625 7.0625 9.625 4 9 C3.67 8.34 3.34 7.68 3 7 C2.01 6.34 1.02 5.68 0 5 C-0.1875 2.375 -0.1875 2.375 0 0 Z " fill="#8621DF" transform="translate(316,176)"/>
<path d="M0 0 C0 0.66 0 1.32 0 2 C0.66 2.33 1.32 2.66 2 3 C2 3.66 2 4.32 2 5 C0.02 5 -1.96 5 -4 5 C-4 4.34 -4 3.68 -4 3 C-8.455 3.495 -8.455 3.495 -13 4 C-8.68630028 1.12420019 -5.19265239 0 0 0 Z " fill="#7D1ED1" transform="translate(228,152)"/>
<path d="M0 0 C0.66 0.33 1.32 0.66 2 1 C0.6875 3.5 0.6875 3.5 -1 6 C-1.99 6 -2.98 6 -4 6 C-4 7.32 -4 8.64 -4 10 C-6.31 10.66 -8.62 11.32 -11 12 C-7.49102731 7.81576108 -3.91939465 3.80411834 0 0 Z " fill="#361E4E" transform="translate(192,179)"/>
<path d="M0 0 C0.66 0 1.32 0 2 0 C2.33 1.32 2.66 2.64 3 4 C2.34 4 1.68 4 1 4 C0.67 5.32 0.34 6.64 0 8 C-2.49064888 8.68707555 -4.37886292 9 -7 9 C-5.88266271 7.49428343 -4.75589965 5.99555708 -3.625 4.5 C-2.99851563 3.6646875 -2.37203125 2.829375 -1.7265625 1.96875 C-1.15679687 1.3190625 -0.58703125 0.669375 0 0 Z " fill="#27242A" transform="translate(165,176)"/>
<path d="M0 0 C1.32 0.66 2.64 1.32 4 2 C3.34 2 2.68 2 2 2 C1.71125 2.928125 1.4225 3.85625 1.125 4.8125 C0 8 0 8 -2 11 C-2.99 11 -3.98 11 -5 11 C-4.67 9.35 -4.34 7.7 -4 6 C-3.01 5.67 -2.02 5.34 -1 5 C-0.67 3.35 -0.34 1.7 0 0 Z " fill="#333136" transform="translate(246,169)"/>
<path d="M0 0 C2.94721162 2.74395564 5.19168608 5.38337216 7 9 C6.67 9.66 6.34 10.32 6 11 C4.68 11 3.36 11 2 11 C1.664061 9.5422647 1.33133376 8.08378894 1 6.625 C0.814375 5.81289062 0.62875 5.00078125 0.4375 4.1640625 C0 2 0 2 0 0 Z " fill="#821BD9" transform="translate(336,200)"/>
<path d="M0 0 C0.33 0.66 0.66 1.32 1 2 C1.66 2 2.32 2 3 2 C3.33 2.99 3.66 3.98 4 5 C1.6875 6.5625 1.6875 6.5625 -1 8 C-1.99 7.67 -2.98 7.34 -4 7 C-2.68 4.69 -1.36 2.38 0 0 Z " fill="#E4E4E4" transform="translate(186,288)"/>
<path d="M0 0 C0.33 0.66 0.66 1.32 1 2 C1.66 2.33 2.32 2.66 3 3 C-1.75 8.75 -1.75 8.75 -4 11 C-4.8125 8.875 -4.8125 8.875 -5 6 C-3.55576519 3.69892439 -1.89127865 1.98353614 0 0 Z " fill="#F0F0F0" transform="translate(205,274)"/>
<path d="M0 0 C-0.59687434 3.34249629 -1.73603877 5.46436342 -4 8 C-4.66 8 -5.32 8 -6 8 C-6.33 8.66 -6.66 9.32 -7 10 C-6.65125309 4.59442287 -6.65125309 4.59442287 -6 2 C-3.81734379 0.31020164 -2.72785349 0 0 0 Z " fill="#4F4F52" transform="translate(338,328)"/>
<path d="M0 0 C-1 2 -1 2 -2.9375 2.875 C-5.42001234 4.22909764 -5.96871397 5.42178493 -7 8 C-7.66 8 -8.32 8 -9 8 C-9.22223194 5.25913944 -9.34781139 3.56036279 -7.875 1.1875 C-5.22464043 -0.49106106 -3.06753576 -0.20450238 0 0 Z " fill="#221E25" transform="translate(212,278)"/>
<path d="M0 0 C2.0625 0.4375 2.0625 0.4375 4 1 C4 1.66 4 2.32 4 3 C4.99 3.33 5.98 3.66 7 4 C6.67 6.31 6.34 8.62 6 11 C3.3513141 7.80331012 1.06007659 4.60513403 -1 1 C-0.67 0.67 -0.34 0.34 0 0 Z " fill="#2B253C" transform="translate(331,189)"/>
<path d="M0 0 C2.91316254 1.45658127 3.09207774 3.36160014 4.1875 6.375 C4.55230469 7.35210937 4.91710937 8.32921875 5.29296875 9.3359375 C6 12 6 12 5 15 C3.4375 13.75 3.4375 13.75 2 12 C2.3125 9.8125 2.3125 9.8125 3 8 C2.01 8.33 1.02 8.66 0 9 C0 6.03 0 3.06 0 0 Z " fill="#8F8F91" transform="translate(355,206)"/>
<path d="M0 0 C0.5534764 2.07553648 1 3.84365964 1 6 C-0.8125 7.6875 -0.8125 7.6875 -3 9 C-3.99 8.67 -4.98 8.34 -6 8 C-2.25 2.25 -2.25 2.25 0 0 Z " fill="#3D3C40" transform="translate(314,348)"/>
<path d="M0 0 C0.66 0.33 1.32 0.66 2 1 C-0.475 5.455 -0.475 5.455 -3 10 C-4.33333333 8.66666667 -5.66666667 7.33333333 -7 6 C-5.68 5.34 -4.36 4.68 -3 4 C-3 3.34 -3 2.68 -3 2 C-2.01 1.34 -1.02 0.68 0 0 Z " fill="#706C71" transform="translate(185,157)"/>
<path d="M0 0 C1.32 0 2.64 0 4 0 C3.25 4.75 3.25 4.75 1 7 C1 6.34 1 5.68 1 5 C0.34 5 -0.32 5 -1 5 C-1.33 5.66 -1.66 6.32 -2 7 C-1.125 2.25 -1.125 2.25 0 0 Z " fill="#3B3A3C" transform="translate(337,323)"/>
<path d="M0 0 C3.91211733 1.15585285 6.8745041 2.35534962 10 5 C4.6440678 6.33898305 4.6440678 6.33898305 1.625 4.75 C0 3 0 3 0 0 Z " fill="#7327B7" transform="translate(230,359)"/>
<path d="M0 0 C0.45375 0.495 0.9075 0.99 1.375 1.5 C2.87635519 3.22609337 2.87635519 3.22609337 5 3 C5.625 5.875 5.625 5.875 6 9 C5.34 9.66 4.68 10.32 4 11 C3.32880451 9.5437455 2.66318193 8.08492133 2 6.625 C1.62875 5.81289063 1.2575 5.00078125 0.875 4.1640625 C0 2 0 2 0 0 Z " fill="#30263F" transform="translate(160,293)"/>
<path d="M0 0 C0.99 0.66 1.98 1.32 3 2 C1.25 5.875 1.25 5.875 -1 7 C-1.66 6.67 -2.32 6.34 -3 6 C-3 5.34 -3 4.68 -3 4 C-3.66 3.67 -4.32 3.34 -5 3 C-3.35 2.67 -1.7 2.34 0 2 C0 1.34 0 0.68 0 0 Z " fill="#6F23B8" transform="translate(195,343)"/>
<path d="M0 0 C0.33 0.99 0.66 1.98 1 3 C1.99 3.33 2.98 3.66 4 4 C3.67 5.65 3.34 7.3 3 9 C2.67 7.68 2.34 6.36 2 5 C0.02 5.33 -1.96 5.66 -4 6 C-3.67 4.35 -3.34 2.7 -3 1 C-2.67 1.66 -2.34 2.32 -2 3 C-1.34 3 -0.68 3 0 3 C0 2.01 0 1.02 0 0 Z " fill="#61269B" transform="translate(342,285)"/>
<path d="M0 0 C0.33 0 0.66 0 1 0 C1.33 2.64 1.66 5.28 2 8 C0.35 8.33 -1.3 8.66 -3 9 C-1.125 2.25 -1.125 2.25 0 0 Z " fill="#6D6C70" transform="translate(145,204)"/>
<path d="M0 0 C0.33 0 0.66 0 1 0 C1 3.96 1 7.92 1 12 C-1.64 11.67 -4.28 11.34 -7 11 C-7 10.67 -7 10.34 -7 10 C-3.535 9.505 -3.535 9.505 0 9 C0 6.03 0 3.06 0 0 Z " fill="#3C225E" transform="translate(239,151)"/>
<path d="M0 0 C3.875 1.75 3.875 1.75 5 4 C0.25 7 0.25 7 -2 7 C-2 6.34 -2 5.68 -2 5 C-1.34 5 -0.68 5 0 5 C0 3.35 0 1.7 0 0 Z " fill="#32263C" transform="translate(288,345)"/>
<path d="M0 0 C2.29633824 3.44450737 2.54016485 5.93812283 3 10 C0.47154472 8.73577236 0.23577236 7.47154472 -1 5 C-1.66 4.67 -2.32 4.34 -3 4 C-2.01 2.68 -1.02 1.36 0 0 Z " fill="#25232B" transform="translate(148,283)"/>
<path d="M0 0 C0.33 0 0.66 0 1 0 C1 1.65 1 3.3 1 5 C-1.64 5 -4.28 5 -7 5 C-7 4.01 -7 3.02 -7 2 C-4.69 2.33 -2.38 2.66 0 3 C0 2.01 0 1.02 0 0 Z " fill="#8618DC" transform="translate(155,239)"/>
<path d="M0 0 C0.66 0.33 1.32 0.66 2 1 C0.92598892 3.91517292 0.22189824 5.77810176 -2 8 C-2.66 8 -3.32 8 -4 8 C-3.40072174 4.64404172 -2.15377564 2.62198774 0 0 Z " fill="#801DCE" transform="translate(166,208)"/>
<path d="M0 0 C0.33 0.99 0.66 1.98 1 3 C0.34 2.67 -0.32 2.34 -1 2 C-0.67 1.34 -0.34 0.68 0 0 Z M-4 3 C-3.01 3 -2.02 3 -1 3 C-1 3.66 -1 4.32 -1 5 C-0.34 5.33 0.32 5.66 1 6 C-2.63 6.33 -6.26 6.66 -10 7 C-7 5 -7 5 -4 5 C-4 4.34 -4 3.68 -4 3 Z " fill="#39234B" transform="translate(238,145)"/>
<path d="M0 0 C2.39763185 2.39763185 2.34280586 3.33273498 2.625 6.625 C2.69976562 7.44226563 2.77453125 8.25953125 2.8515625 9.1015625 C2.90054687 9.72804687 2.94953125 10.35453125 3 11 C2.01 11 1.02 11 0 11 C0 7.37 0 3.74 0 0 Z " fill="#A5A5A7" transform="translate(254,128)"/>
<path d="M0 0 C2.475 0.495 2.475 0.495 5 1 C4.67 2.65 4.34 4.3 4 6 C3.01 6 2.02 6 1 6 C0.67 4.02 0.34 2.04 0 0 Z " fill="#312F36" transform="translate(233,368)"/>
<path d="M0 0 C2.31 0 4.62 0 7 0 C6.01 0.33 5.02 0.66 4 1 C4.33 2.32 4.66 3.64 5 5 C3.68 5 2.36 5 1 5 C0.67 3.35 0.34 1.7 0 0 Z " fill="#282427" transform="translate(260,366)"/>
<path d="M0 0 C2.97 1.98 2.97 1.98 6 4 C5.67 5.32 5.34 6.64 5 8 C2.5 5.6875 2.5 5.6875 0 3 C0 2.01 0 1.02 0 0 Z " fill="#3E3E42" transform="translate(159,328)"/>
<path d="M0 0 C1.09658936 3.28976808 0.79953138 4.71303767 0 8 C-1.65 8 -3.3 8 -5 8 C-3.38731308 5.28775382 -1.75098126 2.62647188 0 0 Z " fill="#332243" transform="translate(180,191)"/>
<path d="M0 0 C0.66 0 1.32 0 2 0 C2 0.99 2 1.98 2 3 C1.34 3 0.68 3 0 3 C0 4.65 0 6.3 0 8 C-0.66 8 -1.32 8 -2 8 C-2.6875 6.25 -2.6875 6.25 -3 4 C-1.6875 1.75 -1.6875 1.75 0 0 Z " fill="#231B31" transform="translate(333,316)"/>
<path d="M0 0 C1.32 0.99 2.64 1.98 4 3 C3.67 4.32 3.34 5.64 3 7 C2.01 6.67 1.02 6.34 0 6 C-0.33 6.66 -0.66 7.32 -1 8 C-0.67 5.36 -0.34 2.72 0 0 Z " fill="#6726A0" transform="translate(341,278)"/>
<path d="M0 0 C0.33 0.66 0.66 1.32 1 2 C-0.1875 5.0625 -0.1875 5.0625 -2 8 C-4.1875 8.875 -4.1875 8.875 -6 9 C-4.16172132 5.84866512 -2.24027294 2.88035092 0 0 Z " fill="#7E1DBF" transform="translate(172,186)"/>
<path d="M0 0 C0.33 0.99 0.66 1.98 1 3 C-2.28696233 3.79953138 -3.71023192 4.09658936 -7 3 C-4.64046906 0.64046906 -3.22104383 0.50858587 0 0 Z " fill="#69676A" transform="translate(194,153)"/>
<path d="M0 0 C0.33 0 0.66 0 1 0 C1.33 3.63 1.66 7.26 2 11 C1.01 10.67 0.02 10.34 -1 10 C-0.67 6.7 -0.34 3.4 0 0 Z " fill="#7825C0" transform="translate(149,231)"/>
<path d="M0 0 C0.99 0 1.98 0 3 0 C3 0.66 3 1.32 3 2 C3.66 2.33 4.32 2.66 5 3 C3.02 3.99 3.02 3.99 1 5 C0.34 3.68 -0.32 2.36 -1 1 C-0.67 0.67 -0.34 0.34 0 0 Z " fill="#28282A" transform="translate(330,185)"/>
<path d="M0 0 C2.00720923 0.28674418 4.0085944 0.61866701 6 1 C4.25 4.875 4.25 4.875 2 6 C1.67 5.01 1.34 4.02 1 3 C0.34 2.34 -0.32 1.68 -1 1 C-0.67 0.67 -0.34 0.34 0 0 Z " fill="#32233D" transform="translate(174,176)"/>
<path d="M0 0 C-0.33 0.99 -0.66 1.98 -1 3 C-3.31 3 -5.62 3 -8 3 C-8.33 2.34 -8.66 1.68 -9 1 C-5.92677456 0.08941469 -3.19902639 -0.08886184 0 0 Z " fill="#931BEF" transform="translate(224,155)"/>
<path d="M0 0 C2.31 0.66 4.62 1.32 7 2 C7 2.33 7 2.66 7 3 C3.04 3 -0.92 3 -5 3 C-3.68 2.34 -2.36 1.68 -1 1 C-0.67 0.67 -0.34 0.34 0 0 Z " fill="#4F4759" transform="translate(261,372)"/>
<path d="M0 0 C0.99 0.33 1.98 0.66 3 1 C2.6875 2.9375 2.6875 2.9375 2 5 C1.01 5.33 0.02 5.66 -1 6 C-1.66 4.68 -2.32 3.36 -3 2 C-2.01 1.67 -1.02 1.34 0 1 C0 0.67 0 0.34 0 0 Z " fill="#282624" transform="translate(198,354)"/>
<path d="M0 0 C-0.66 1.65 -1.32 3.3 -2 5 C-3.32 4.67 -4.64 4.34 -6 4 C-6 3.34 -6 2.68 -6 2 C-3 0 -3 0 0 0 Z " fill="#444345" transform="translate(330,338)"/>
<path d="M0 0 C3.0831351 1.19899698 6.06279492 2.47700477 9 4 C8.01 4.66 7.02 5.32 6 6 C6 5.34 6 4.68 6 4 C4.35 3.67 2.7 3.34 1 3 C0.67 2.01 0.34 1.02 0 0 Z " fill="#8121CC" transform="translate(288,158)"/>
<path d="M0 0 C0.66 0.33 1.32 0.66 2 1 C1.67 2.65 1.34 4.3 1 6 C-0.65 6 -2.3 6 -4 6 C-2.68 4.02 -1.36 2.04 0 0 Z " fill="#7927BC" transform="translate(318,328)"/>
<path d="M0 0 C1.37562854 1.28965176 2.70766393 2.62689293 4 4 C4 4.66 4 5.32 4 6 C2.35 5.67 0.7 5.34 -1 5 C-1.33 5.66 -1.66 6.32 -2 7 C-1.42415568 4.61435923 -0.77772405 2.33317216 0 0 Z " fill="#322240" transform="translate(165,320)"/>
<path d="M0 0 C0.33 0 0.66 0 1 0 C1.1875 3.375 1.1875 3.375 1 7 C0.01 7.66 -0.98 8.32 -2 9 C-1.125 2.25 -1.125 2.25 0 0 Z " fill="#1B1822" transform="translate(345,292)"/>
<path d="M0 0 C0.99 0.33 1.98 0.66 3 1 C1.35 2.65 -0.3 4.3 -2 6 C-2 4.35 -2 2.7 -2 1 C-1.34 0.67 -0.68 0.34 0 0 Z " fill="#32223C" transform="translate(183,171)"/>
<path d="M0 0 C2.31 0.66 4.62 1.32 7 2 C7.33 3.32 7.66 4.64 8 6 C6.66402348 5.19185349 5.331275 4.37836819 4 3.5625 C3.2575 3.11003906 2.515 2.65757812 1.75 2.19140625 C1.1725 1.79824219 0.595 1.40507812 0 1 C0 0.67 0 0.34 0 0 Z " fill="#32214A" transform="translate(302,165)"/>
<path d="M0 0 C0.33 0.66 0.66 1.32 1 2 C0.01 3.32 -0.98 4.64 -2 6 C-2.99 5.67 -3.98 5.34 -5 5 C-3.35 3.35 -1.7 1.7 0 0 Z " fill="#211E23" transform="translate(180,163)"/>
</svg>
