<?xml version="1.0" standalone="no"?>
<!DOCTYPE svg PUBLIC "-//W3C//DTD SVG 20010904//EN"
 "http://www.w3.org/TR/2001/REC-SVG-20010904/DTD/svg10.dtd">
<svg version="1.0" xmlns="http://www.w3.org/2000/svg"
 width="500.000000pt" height="500.000000pt" viewBox="0 0 500.000000 500.000000"
 preserveAspectRatio="xMidYMid meet">

<g transform="translate(0.000000,500.000000) scale(0.100000,-0.100000)"
fill="#000000" stroke="none">
<path d="M2472 3718 c-7 -7 -12 -33 -12 -60 0 -54 16 -46 -150 -68 -469 -63
-866 -467 -950 -964 l-17 -101 -52 -3 -52 -3 3 -42 c3 -41 4 -42 43 -45 54 -5
65 -16 65 -73 0 -119 56 -322 130 -469 136 -268 416 -509 685 -588 276 -82
548 -62 790 58 358 177 639 576 674 957 4 52 11 97 15 100 4 4 28 10 54 13 45
5 47 7 50 39 4 41 -8 51 -65 51 -24 0 -43 2 -43 4 0 52 -26 223 -42 274 -124
404 -511 736 -924 792 -130 18 -124 15 -124 61 0 22 -5 49 -10 60 -12 21 -50
25 -68 7z m35 -455 c7 -16 72 -140 144 -278 146 -279 492 -968 503 -1003 l7
-22 -690 0 c-380 0 -691 3 -691 8 0 19 166 292 198 325 20 20 53 42 73 47 22
6 153 9 314 8 l277 -3 -49 -57 -48 -57 -225 0 c-158 -1 -232 -5 -250 -14 -13
-7 -39 -38 -57 -70 l-32 -57 495 0 c272 0 494 2 494 5 0 3 -41 86 -90 185
l-90 180 -380 0 c-209 0 -380 3 -380 6 0 5 72 134 235 424 45 80 113 202 151
272 38 71 71 128 74 128 3 0 11 -12 17 -27z"/>
<path d="M2465 3023 c-8 -16 -67 -118 -129 -228 l-114 -200 246 -3 c135 -1
247 -1 249 1 4 5 -226 457 -232 457 -2 0 -11 -12 -20 -27z"/>
</g>
</svg>
